# xmcd CD database file
#
# Track frame offsets:
#	150
#	10920
#	20898
#	33509
#	51544
#	62831
#	74000
#	87019
#	99880
#	114225
#	128624
#	141897
#	155005
#	166330
#	178538
#	192710
#	207226
#
# Disc length: 2890 seconds
#
# Revision: 0
# Processed by: cddbd v1.5.2PL0 Copyright (c) Steve Scherf et al.
# Submitted via: CDex 1.70beta2
#
DISCID=f30b4811
DTITLE=Fajádo a Luděk Frýba - Život je krásnej
DYEAR=1900
DGENRE=Country
TTITLE0=Pekelná polka
TTITLE1=Joudala
TTITLE2=Oklahomský hory
TTITLE3=Údolí
TTITLE4=Rodokapsy
TTITLE5=Vrazili jsme do banky
TTITLE6=Ubývá zvolna den
TTITLE7=Myší mejdan
TTITLE8=Mexická noc
TTITLE9=Mám strach
TTITLE10=Rodeo
TTITLE11=Oheň v údolí
TTITLE12=Zlatá holka
TTITLE13=Podzimní písnička
TTITLE14=Trpaslíci
TTITLE15=Písnička na zimu
TTITLE16=Myší mejdan 2
EXTD=
EXTT0=
EXTT1=
EXTT2=
EXTT3=
EXTT4=
EXTT5=
EXTT6=
EXTT7=
EXTT8=
EXTT9=
EXTT10=
EXTT11=
EXTT12=
EXTT13=
EXTT14=
EXTT15=
EXTT16=
PLAYORDER=
